HIERARCHY
ROOT Hips
{
	OFFSET 0.000000 0.000000 0.000000
	CHANNELS 6 Xposition Yposition Zposition Xrotation Yrotation Zrotation
	JOINT LeftUpLeg_virtual
	{
		OFFSET 0.000000 0.000000 0.000000
		CHANNELS 3 Xrotation Yrotation Zrotation
		JOINT LeftUpLeg
		{
			OFFSET 11.394100 -6.187798 -0.413800
			CHANNELS 3 Xrotation Yrotation Zrotation
			JOINT LeftLeg
			{
				OFFSET 0.430247 -32.302673 3.732800
				CHANNELS 3 Xrotation Yrotation Zrotation
				JOINT LeftFoot
				{
					OFFSET -0.430247 -48.264931 -6.423300
					CHANNELS 3 Xrotation Yrotation Zrotation
					JOINT LeftToeBase
					{
						OFFSET 4.230900 -16.068199 23.438400
						CHANNELS 3 Xrotation Yrotation Zrotation
						JOINT LeftToe_End
						{
							OFFSET 4.510700 0.695400 19.974600
							CHANNELS 3 Xrotation Yrotation Zrotation
							End Site
							{
								OFFSET 0 0 0
							}
						}
					}
				}
			}
		}
	}
	JOINT RightUpLeg_virtual
	{
		OFFSET 0.000000 0.000000 0.000000
		CHANNELS 3 Xrotation Yrotation Zrotation
		JOINT RightUpLeg
		{
			OFFSET -11.333700 -6.187798 -0.413800
			CHANNELS 3 Xrotation Yrotation Zrotation
			JOINT RightLeg
			{
				OFFSET -0.430392 -32.302628 3.733000
				CHANNELS 3 Xrotation Yrotation Zrotation
				JOINT RightFoot
				{
					OFFSET 0.430392 -48.264973 -6.423500
					CHANNELS 3 Xrotation Yrotation Zrotation
					JOINT RightToeBase
					{
						OFFSET -4.230900 -16.068199 23.438400
						CHANNELS 3 Xrotation Yrotation Zrotation
						JOINT RightToe_End
						{
							OFFSET -4.510700 0.695400 19.974600
							CHANNELS 3 Xrotation Yrotation Zrotation
							End Site
							{
								OFFSET 0 0 0
							}
						}
					}
				}
			}
		}
	}
	JOINT Spine_virtual
	{
		OFFSET 0.000000 0.000000 0.000000
		CHANNELS 3 Xrotation Yrotation Zrotation
		JOINT Spine
		{
			OFFSET -0.002400 12.777504 0.315300
			CHANNELS 3 Xrotation Yrotation Zrotation
			JOINT Spine1
			{
				OFFSET -0.002067 5.816869 0.032633
				CHANNELS 3 Xrotation Yrotation Zrotation
				JOINT Spine1_split
				{
					OFFSET -0.002067 5.816869 0.032633
					CHANNELS 3 Xrotation Yrotation Zrotation
					JOINT Spine2
					{
						OFFSET -0.002067 5.816869 0.032633
						CHANNELS 3 Xrotation Yrotation Zrotation
						JOINT Neck_virtual
						{
							OFFSET 0.000000 0.000000 0.000000
							CHANNELS 3 Xrotation Yrotation Zrotation
							JOINT Neck
							{
								OFFSET -0.003700 21.199493 -0.826900
								CHANNELS 3 Xrotation Yrotation Zrotation
								JOINT Head
								{
									OFFSET 0.000000 20.442200 4.834800
									CHANNELS 3 Xrotation Yrotation Zrotation
									JOINT HeadTop_End
									{
										OFFSET 0.000000 34.668396 4.968400
										CHANNELS 3 Xrotation Yrotation Zrotation
										End Site
										{
											OFFSET 0 0 0
										}
									}
								}
							}
						}
						JOINT LeftShoulder_virtual
						{
							OFFSET 0.000000 0.000000 0.000000
							CHANNELS 3 Xrotation Yrotation Zrotation
							JOINT LeftShoulder
							{
								OFFSET 3.288150 8.794197 -1.372250
								CHANNELS 3 Xrotation Yrotation Zrotation
								JOINT LeftShoulder_split
								{
									OFFSET 3.288150 8.794197 -1.372250
									CHANNELS 3 Xrotation Yrotation Zrotation
									JOINT LeftArm
									{
										OFFSET 11.953299 -2.279007 -0.146200
										CHANNELS 3 Xrotation Yrotation Zrotation
										JOINT LeftForeArm
										{
											OFFSET 18.448900 0.000000 0.000000
											CHANNELS 3 Xrotation Yrotation Zrotation
											JOINT LeftHand
											{
												OFFSET 29.527798 0.000000 0.000000
												CHANNELS 3 Xrotation Yrotation Zrotation
												End Site
												{
													OFFSET 0 0 0
												}
											}
										}
									}
								}
							}
						}
						JOINT RightShoulder_virtual
						{
							OFFSET 0.000000 0.000000 0.000000
							CHANNELS 3 Xrotation Yrotation Zrotation
							JOINT RightShoulder
							{
								OFFSET -3.249400 8.794197 -1.372250
								CHANNELS 3 Xrotation Yrotation Zrotation
								JOINT RightShoulder_split
								{
									OFFSET -3.249400 8.794197 -1.372250
									CHANNELS 3 Xrotation Yrotation Zrotation
									JOINT RightArm
									{
										OFFSET -11.953299 -2.279007 -0.146200
										CHANNELS 3 Xrotation Yrotation Zrotation
										JOINT RightForeArm
										{
											OFFSET -18.448900 0.000000 0.000000
											CHANNELS 3 Xrotation Yrotation Zrotation
											JOINT RightHand
											{
												OFFSET -29.527802 0.000000 0.000000
												CHANNELS 3 Xrotation Yrotation Zrotation
												End Site
												{
													OFFSET 0 0 0
												}
											}
										}
									}
								}
							}
						}
					}
				}
			}
		}
	}
}
MOTION
Frames: 9
Frame Time: 0.03333333
-4.121144 87.909790 -6.196743 0.000000 0.000000 0.000000 9.580945 -52.366855 11.679904 -40.509849 16.308122 26.444892 36.572586 -10.762735 -3.221919 -1.009339 -2.033742 -8.392895 0.181916 -1.999445 -3.111472 0.000000 0.000000 0.000000 8.577322 -50.176267 11.067801 -36.409594 -3.560731 -21.875627 45.754030 12.538274 -5.374674 -14.778945 -4.346747 30.551146 8.890523 11.775861 -19.717979 0.000000 0.000000 0.000000 5.809899 -45.481318 9.128150 5.257282 2.782836 -3.087382 10.938864 -4.429060 -5.400503 0.106706 -0.508067 0.061221 0.000000 0.000000 0.000000 15.055137 -1.929614 -5.335191 -14.506697 18.463005 5.391648 -22.494967 25.001959 3.329928 0.000000 0.000000 0.000000 14.079541 -4.059121 -6.279535 1.300713 -9.613737 -1.962016 -1.994089 -2.548227 -1.964000 -27.829117 3.023268 -30.882130 21.945726 -38.756348 12.702288 0.000000 0.000000 0.000000 15.821223 -2.912385 -5.112469 -8.762354 8.535230 6.454393 11.104780 6.212127 -1.761965 -47.824472 -29.092771 28.750981 -160.123690 74.578016 159.722362 0.000000 0.000000 0.000000 
-4.080193 87.907379 -5.942070 0.000000 0.000000 0.000000 9.526359 -52.407157 11.687592 -40.462990 16.350703 26.378937 36.652448 -10.784637 -3.241114 -1.044237 -2.112906 -8.347882 0.133201 -2.031156 -2.936702 0.000000 0.000000 0.000000 8.587584 -50.318676 11.116795 -36.350659 -3.533734 -21.944944 45.707933 12.566596 -5.343317 -14.804355 -4.523779 30.602068 8.882643 11.812541 -19.737444 0.000000 0.000000 0.000000 5.839482 -45.449834 9.062415 5.236784 2.812012 -3.066022 10.907457 -4.475481 -5.430772 0.101621 -0.565216 0.065226 0.000000 0.000000 0.000000 15.106876 -1.960529 -5.350873 -14.477884 18.380661 5.511429 -22.442810 24.942307 3.284677 0.000000 0.000000 0.000000 14.101012 -4.135145 -6.265459 1.321029 -9.786689 -1.825425 -2.114587 -2.577660 -2.196877 -28.001752 2.988053 -30.754839 21.553541 -38.692899 12.563211 0.000000 0.000000 0.000000 15.757637 -2.988420 -5.095740 -8.695376 8.530730 6.528589 11.412933 6.195053 -1.488621 -47.983964 -29.219078 28.712380 -160.007044 74.432997 159.471817 0.000000 0.000000 0.000000 
-3.958075 87.945114 -5.578629 0.000000 0.000000 0.000000 9.480950 -52.417549 11.690285 -40.268545 16.351611 26.168359 36.852982 -10.800063 -3.255488 -1.339167 -2.256316 -8.106982 -0.023780 -2.051590 -2.816581 0.000000 0.000000 0.000000 8.598486 -50.363288 11.136651 -36.194484 -3.660286 -22.151222 45.340636 12.650976 -5.302412 -14.593471 -4.699627 30.837191 8.908297 11.848422 -19.817565 0.000000 0.000000 0.000000 5.841273 -45.421834 8.979888 5.218884 2.887303 -3.060222 10.845122 -4.551087 -5.453462 0.098183 -0.608250 0.076062 0.000000 0.000000 0.000000 15.099407 -2.008446 -5.374319 -14.253702 18.323878 5.475854 -22.272642 24.617829 3.197898 0.000000 0.000000 0.000000 14.089192 -4.242002 -6.230790 1.316194 -9.981360 -1.780219 -2.286707 -2.529837 -2.531969 -28.373038 2.707453 -30.448498 21.109120 -38.139585 12.468489 0.000000 0.000000 0.000000 15.639499 -3.086127 -5.074428 -8.587311 8.666105 6.804395 11.602652 5.961643 -1.268658 -48.293604 -29.749411 28.589662 -159.909769 74.825597 158.943160 0.000000 0.000000 0.000000 
-3.765309 88.003662 -5.150848 0.000000 0.000000 0.000000 9.443694 -52.391943 11.676925 -39.958789 16.328937 25.834550 37.170210 -10.780586 -3.277526 -1.899579 -2.440259 -7.700142 -0.150941 -2.054602 -2.790970 0.000000 0.000000 0.000000 8.602569 -50.342968 11.122550 -35.983475 -3.915254 -22.474666 44.667620 12.785213 -5.253324 -14.199147 -4.865911 31.203180 8.997086 11.883268 -19.970362 0.000000 0.000000 0.000000 5.830232 -45.392512 8.887110 5.210972 3.012381 -3.069368 10.748907 -4.650530 -5.463901 0.096990 -0.628470 0.083734 0.000000 0.000000 0.000000 15.021345 -2.075686 -5.404510 -13.830290 18.266084 5.297106 -21.900271 23.978247 3.115649 0.000000 0.000000 0.000000 14.040709 -4.380846 -6.181933 1.285334 -10.199502 -1.887228 -2.472121 -2.348870 -2.941988 -28.826994 2.254775 -30.002859 20.689225 -37.287645 12.477980 0.000000 0.000000 0.000000 15.465862 -3.204820 -5.045482 -8.444854 8.936797 7.231482 11.749304 5.632763 -1.239704 -48.698180 -30.580048 28.403775 -159.850783 75.796426 158.162797 0.000000 0.000000 0.000000 
-3.521130 88.073471 -4.630707 0.000000 0.000000 0.000000 9.396495 -52.348858 11.632984 -39.571589 16.306972 25.399920 37.583420 -10.719886 -3.311993 -2.635772 -2.643743 -7.200094 -0.165365 -2.037123 -2.862142 0.000000 0.000000 0.000000 8.584189 -50.283057 11.071650 -35.767624 -4.264000 -22.886280 43.731659 12.985105 -5.203742 -13.660011 -5.000413 31.688167 9.109012 11.927177 -20.192377 0.000000 0.000000 0.000000 5.813148 -45.349232 8.784065 5.222667 3.193237 -3.099431 10.613045 -4.765584 -5.457132 0.099110 -0.612037 0.082096 0.000000 0.000000 0.000000 14.861443 -2.160650 -5.440056 -13.213529 18.200678 5.007451 -21.254642 22.944193 3.084284 0.000000 0.000000 0.000000 13.935875 -4.549723 -6.129665 1.214367 -10.476660 -2.183087 -2.665336 -2.029586 -3.312973 -29.283343 1.681360 -29.446827 20.355185 -36.428356 12.651296 0.000000 0.000000 0.000000 15.225084 -3.340556 -5.010282 -8.275544 9.305214 7.743133 11.933006 5.402777 -1.357659 -49.105648 -31.526545 28.237445 -159.955449 77.313288 157.280597 0.000000 0.000000 0.000000 
-3.242975 88.160034 -4.007469 0.000000 0.000000 0.000000 9.322664 -52.301491 11.542252 -39.122067 16.310714 24.900143 38.053043 -10.615152 -3.362260 -3.466541 -2.850083 -6.668666 -0.122811 -2.000893 -2.978671 0.000000 0.000000 0.000000 8.547157 -50.229430 10.991549 -35.576017 -4.683037 -23.363504 42.602157 13.250711 -5.153541 -12.939668 -5.075374 32.315582 9.146492 11.992685 -20.462950 0.000000 0.000000 0.000000 5.789719 -45.318336 8.668785 5.263562 3.430838 -3.153610 10.432776 -4.889049 -5.434443 0.098334 -0.591413 0.075062 0.000000 0.000000 0.000000 14.632231 -2.254863 -5.480049 -12.402157 18.108027 4.643789 -20.299015 21.461129 3.160317 0.000000 0.000000 0.000000 13.762039 -4.739527 -6.084810 1.089387 -10.829894 -2.711543 -2.827256 -1.668351 -3.628106 -29.685583 1.095671 -28.766144 20.179507 -35.865948 13.052901 0.000000 0.000000 0.000000 14.905030 -3.483958 -4.966919 -8.098043 9.703864 8.277441 12.268482 5.321765 -1.662181 -49.489235 -32.410716 28.146422 -160.310906 79.324383 156.412971 0.000000 0.000000 0.000000 
-2.937388 88.263710 -3.267635 0.000000 0.000000 0.000000 9.234367 -52.272237 11.406987 -38.595715 16.388600 24.365552 38.502968 -10.429979 -3.436044 -4.362439 -3.031802 -6.099982 -0.127388 -1.950480 -3.099473 0.000000 0.000000 0.000000 8.504424 -50.199821 10.888167 -35.403650 -5.152196 -23.887589 41.295252 13.589409 -5.098113 -12.033268 -5.060380 33.083729 9.113653 12.072978 -20.759197 0.000000 0.000000 0.000000 5.731539 -45.322390 8.513514 5.327212 3.731121 -3.232362 10.201137 -5.009821 -5.392345 0.096260 -0.575046 0.068233 0.000000 0.000000 0.000000 14.341488 -2.344994 -5.522953 -11.424021 17.992351 4.245825 -19.054104 19.527349 3.350479 0.000000 0.000000 0.000000 13.520663 -4.934912 -6.048505 0.897898 -11.262526 -3.486368 -2.940041 -1.342413 -3.889034 -30.065407 0.617749 -27.966817 20.176795 -35.720018 13.688692 0.000000 0.000000 0.000000 14.509424 -3.621886 -4.909812 -7.931356 10.065935 8.812026 12.792873 5.438416 -2.022912 -49.871524 -33.108717 28.078344 -161.021792 81.774904 155.721797 0.000000 0.000000 0.000000 
-2.616968 88.406059 -2.457901 0.000000 0.000000 0.000000 9.156720 -52.299725 11.245274 -37.971911 16.565000 23.815765 38.883137 -10.151531 -3.528691 -5.288393 -3.166638 -5.519341 -0.197588 -1.884105 -3.236131 0.000000 0.000000 0.000000 8.474811 -50.234528 10.762600 -35.225717 -5.663729 -24.425161 39.814668 13.978382 -5.028530 -11.010811 -4.971667 33.915239 9.084322 12.158810 -21.033518 0.000000 0.000000 0.000000 5.642231 -45.350219 8.306961 5.398339 4.093740 -3.329081 9.913285 -5.120563 -5.327501 0.104271 -0.557227 0.061345 0.000000 0.000000 0.000000 13.997962 -2.411098 -5.558833 -10.306439 17.879371 3.837388 -17.610739 17.154678 3.618566 0.000000 0.000000 0.000000 13.211422 -5.120867 -6.013362 0.626842 -11.767795 -4.510022 -2.980023 -1.084998 -4.025941 -30.464450 0.284688 -27.100693 20.412936 -36.028599 14.583239 0.000000 0.000000 0.000000 14.041586 -3.736661 -4.834451 -7.797622 10.324011 9.337452 13.432676 5.530789 -2.295208 -50.291851 -33.515308 27.969054 -162.362530 84.621994 155.540961 0.000000 0.000000 0.000000 
-2.282497 88.589752 -1.598118 0.000000 0.000000 0.000000 9.097404 -52.374355 11.065800 -37.279217 16.820207 23.266874 39.168901 -9.804812 -3.631534 -6.198018 -3.265458 -4.985289 -0.292330 -1.799789 -3.403928 0.000000 0.000000 0.000000 8.440166 -50.337067 10.597632 -34.997592 -6.222376 -24.948043 38.158614 14.359629 -4.925718 -9.926710 -4.842090 34.668346 9.153737 12.245847 -21.247491 0.000000 0.000000 0.000000 5.499777 -45.374087 8.041405 5.460302 4.514401 -3.434985 9.576007 -5.213968 -5.231621 0.118124 -0.545470 0.064582 0.000000 0.000000 0.000000 13.619565 -2.445244 -5.574826 -9.078235 17.800076 3.432339 -16.089919 14.447775 3.860589 0.000000 0.000000 0.000000 12.854585 -5.281917 -5.962982 0.276575 -12.315547 -5.763340 -2.909992 -0.878633 -4.040976 -30.956904 0.099380 -26.237026 20.904270 -36.693921 15.722208 0.000000 0.000000 0.000000 13.531744 -3.817949 -4.736486 -7.706019 10.416723 9.854558 14.161079 5.583837 -2.514828 -50.815467 -33.545757 27.710819 -165.852962 87.823897 157.441912 0.000000 0.000000 0.000000 
